<?xml version="1.0" standalone="no"?><!DOCTYPE svg PUBLIC "-//W3C//DTD SVG 1.1//EN" "http://www.w3.org/Graphics/SVG/1.1/DTD/svg11.dtd"><svg t="1517239212805" class="icon" style="" viewBox="0 0 1024 1024" version="1.1" xmlns="http://www.w3.org/2000/svg" p-id="2397" xmlns:xlink="http://www.w3.org/1999/xlink" width="64" height="64"><defs><style type="text/css"></style></defs><path d="M184.134 539.186c5.906 54.548 41.457 185.552 544.934 262.221 0 0 192.352 26.015 226.469-29.01 34.09-55.01-137.253-83.795-170.515-96.216-200.443-74.841-344.075-304.055-424.398-330.907-49.191-16.445-148.521-15.64-148.521-15.64L123.747 216.45 64 289.637l116.795 84.488s-0.255 131.856 3.339 165.061z" fill="#40ce8f" p-id="2398"></path><path d="M955.537 772.395a32.106 32.106 0 0 0 2.704-5.414c0.127-0.327 0.174-0.639 0.285-0.962 0.511-1.489 0.932-2.969 1.142-4.417 0.033-0.211 0.026-0.417 0.051-0.628 0.184-1.578 0.24-3.136 0.095-4.667 0 0-0.022-0.137-0.03-0.21a23.236 23.236 0 0 0-1.044-4.877l-0.001-0.009c-55.769 36.179-212.103 15.053-212.103 15.053-398.964-60.752-472.673-189.879-500.674-240.869-4.888-8.905-1.929-19.903 6.62-25.385 40.047-25.69 104.607-132.442 95.633-158.239-35.81-8.854-87.067-11.269-115.372-11.908-10.48 2.389-19.519 4.783-25.664 6.52-5.696 1.609-11.73 0.493-16.525-2.972l-87.282-63.143c-8.317-6.014-19.882-4.504-26.375 3.445l-0.005 0.009c-7.049 8.634-5.378 21.425 3.657 27.958l84.643 61.229 15.502 11.218s-0.006 4.096-0.001 10.701l0.006 3.732c0.002 1.223 0.005 2.544 0.006 3.892l0.012 4.786 0.016 5.135 0.015 4.053a4984.54 4984.54 0 0 0 0.066 12.735c0.019 3.291 0.042 6.671 0.069 10.141 0.01 1.42 0.024 2.891 0.037 4.332 0.023 2.763 0.048 5.555 0.076 8.39 0.015 1.621 0.034 3.26 0.052 4.9 0.029 2.642 0.06 5.301 0.094 7.97 0.024 1.869 0.048 3.739 0.075 5.61 0.04 2.896 0.083 5.778 0.131 8.656 0.022 1.335 0.04 2.668 0.064 3.994a2801.154 2801.154 0 0 0 0.281 14.159c0.083 3.71 0.175 7.343 0.272 10.873 0.039 1.436 0.085 2.792 0.127 4.191 0.075 2.496 0.152 4.949 0.236 7.309 0.049 1.402 0.102 2.754 0.155 4.101 0.087 2.245 0.179 4.394 0.276 6.464 0.057 1.223 0.113 2.437 0.173 3.595 0.109 2.089 0.226 4.011 0.345 5.864 0.057 0.887 0.112 1.84 0.172 2.667 0.181 2.527 0.373 4.831 0.579 6.744l0.005 0.06c3.138 28.98 14.641 79.537 100.225 132.062a429.735 429.735 0 0 0 15.884 9.287c33.362 18.595 76.433 37.292 132.103 55.231a1213.134 1213.134 0 0 0 28.899 8.896c69.942 20.608 157.686 39.975 267.822 56.747 0.003 0.001 192.355 26.016 226.471-29.009z" fill="#020202" p-id="2399"></path><path d="M471.374 521.825c-5.87 0-11.434-3.483-13.81-9.239-0.424-1.002-25.989-60.528-84.424-77.298-7.925-2.276-12.511-10.547-10.237-18.474 2.282-7.929 10.522-12.505 18.477-10.234 72.778 20.887 102.565 91.634 103.805 94.634 3.127 7.631-0.518 16.356-8.145 19.488a14.905 14.905 0 0 1-5.666 1.123z" fill="#FFFFFF" p-id="2400"></path><path d="M319.478 336.337c-49.315-7.152-107.375-6.7-107.375-6.7L123.749 216.45 64 289.636l116.795 84.491s-0.121 62.498 0.977 112.273c71.605-33.373 118.393-82.822 137.706-150.063z" fill="#0DB14B" p-id="2401"></path><path d="M199.342 451.261c-1.099-49.776-0.978-112.273-0.978-112.273L88.559 259.554 64 289.636l116.795 84.491s-0.121 62.498 0.977 112.273c64.503-30.061 108.658-73.308 130.941-130.715-24.877 40.219-62.79 72.001-113.371 95.576z" fill="#020202" p-id="2402"></path></svg>